<svg xmlns="http://www.w3.org/2000/svg" width="150" height="270" viewBox="0 0 200 360" role="img" aria-label="silhouette, le coeur dans la poitrine">
  <title>Le cœur</title>
  <g fill="#d6dae1" stroke="#aab2bd" stroke-width="3" stroke-linejoin="round">
    <circle cx="100" cy="56" r="34"/>
    <rect x="88" y="86" width="24" height="16" rx="6"/>
    <path d="M60 106 Q100 94 140 106 L148 208 Q100 224 52 208 Z"/>
    <rect x="42" y="112" width="20" height="98" rx="10"/>
    <rect x="138" y="112" width="20" height="98" rx="10"/>
    <circle cx="52" cy="220" r="15"/>
    <circle cx="148" cy="220" r="15"/>
    <rect x="76" y="212" width="21" height="116" rx="10"/>
    <rect x="103" y="212" width="21" height="116" rx="10"/>
  </g>
  <circle cx="90" cy="142" r="23" fill="#fde68a" fill-opacity="0.7"/>
  <path d="M90 152 l-12 -12 a8 8 0 0 1 12 -10 a8 8 0 0 1 12 10 z" fill="#ef4444" stroke="#b91c1c" stroke-width="2"/>
</svg>
