<svg xmlns="http://www.w3.org/2000/svg" width="150" height="270" viewBox="0 0 200 360" role="img" aria-label="silhouette, tout le corps">
  <title>Tout le corps</title>
  <g fill="#d6dae1" stroke="#aab2bd" stroke-width="3" stroke-linejoin="round">
    <circle cx="100" cy="56" r="34"/>
    <rect x="88" y="86" width="24" height="16" rx="6"/>
    <path d="M60 106 Q100 94 140 106 L148 208 Q100 224 52 208 Z"/>
    <rect x="42" y="112" width="20" height="98" rx="10"/>
    <rect x="138" y="112" width="20" height="98" rx="10"/>
    <circle cx="52" cy="220" r="15"/>
    <circle cx="148" cy="220" r="15"/>
    <rect x="76" y="212" width="21" height="116" rx="10"/>
    <rect x="103" y="212" width="21" height="116" rx="10"/>
  </g>
  <g fill="#fde68a" fill-opacity="0.75" stroke="#f59e0b" stroke-width="3">
    <circle cx="100" cy="56" r="11"/>
    <circle cx="100" cy="150" r="11"/>
    <circle cx="52" cy="220" r="11"/>
    <circle cx="148" cy="220" r="11"/>
    <circle cx="86" cy="300" r="11"/>
    <circle cx="117" cy="300" r="11"/>
  </g>
  <g stroke="#f59e0b" stroke-width="4" stroke-linecap="round">
    <line x1="20" y1="90" x2="32" y2="96"/>
    <line x1="180" y1="90" x2="168" y2="96"/>
    <line x1="18" y1="180" x2="30" y2="180"/>
    <line x1="182" y1="180" x2="170" y2="180"/>
  </g>
</svg>
